<svg xmlns="http://www.w3.org/2000/svg" viewBox="0 0 1024 400" width="1024" height="400">
<defs>
<linearGradient id="gw" gradientUnits="userSpaceOnUse" x1="0" y1="75" x2="0" y2="300">
  <stop offset="0" stop-color="#FFB25C"/><stop offset="0.55" stop-color="#FF8A1F"/><stop offset="1" stop-color="#F0670F"/></linearGradient>
<linearGradient id="gs" x1="0" y1="0" x2="1" y2="0">
  <stop offset="0" stop-color="#FFFFFF" stop-opacity="0"/><stop offset="0.5" stop-color="#FFFFFF" stop-opacity="0.55"/><stop offset="1" stop-color="#FFFFFF" stop-opacity="0"/></linearGradient>
<mask id="wm"><g transform="translate(189.5,-133) scale(1.7)"><path d="M52.2 270.4Q34.6 270.4 26.3 261.1Q18.0 251.8 18.0 231.4V185.6H2.8000000000000003L3.2 163.0H13.8Q20.0 163.0 23.0 161.2Q26.0 159.39999999999998 26.6 154.6L29.200000000000003 139.6H45.6V163.0H72.2V186.39999999999998H45.6V230.2Q45.6 237.4 49.0 240.60000000000002Q52.400000000000006 243.8 59.400000000000006 243.8Q63.2 243.8 66.7 243.0Q70.2 242.2 72.8 240.4V267.2Q66.60000000000001 269.2 61.400000000000006 269.79999999999995Q56.2 270.4 52.2 270.4Z" fill="#fff"/>
<path d="M117.20000000000002 270.8Q108.4 270.8 101.60000000000001 267.3Q94.80000000000001 263.8 91.0 257.2Q87.2 250.6 87.2 240.8Q87.2 232.2 90.5 226.39999999999998Q93.80000000000001 220.6 100.20000000000002 217.0Q106.60000000000001 213.4 116.0 211.0Q125.4 208.6 137.4 206.8Q143.8 205.8 147.9 204.9Q152.0 204.0 154.0 201.9Q156.0 199.8 156.0 195.8Q156.0 190.2 152.0 186.2Q148.0 182.2 139.4 182.2Q133.60000000000002 182.2 128.70000000000002 184.2Q123.80000000000001 186.2 120.30000000000001 190.2Q116.80000000000001 194.2 115.20000000000002 200.39999999999998L89.80000000000001 192.6Q92.2 184.39999999999998 96.7 178.39999999999998Q101.2 172.39999999999998 107.6 168.29999999999998Q114.0 164.2 122.2 162.2Q130.4 160.2 140.0 160.2Q155.4 160.2 165.10000000000002 165.1Q174.8 170.0 179.60000000000002 180.3Q184.4 190.6 184.4 206.8V224.8Q184.4 231.8 184.7 239.0Q185.0 246.2 185.5 253.5Q186.0 260.8 186.60000000000002 268.0H161.20000000000002Q160.4 263.0 159.7 256.5Q159.0 250.0 158.60000000000002 243.4H155.0Q152.2 251.0 147.0 257.2Q141.8 263.4 134.3 267.1Q126.80000000000001 270.8 117.20000000000002 270.8ZM129.4 250.0Q133.20000000000002 250.0 137.10000000000002 248.6Q141.0 247.2 144.7 244.7Q148.4 242.2 151.5 238.39999999999998Q154.60000000000002 234.6 156.60000000000002 229.8L156.20000000000002 213.0L160.8 214.0Q157.20000000000002 216.6 152.40000000000003 218.1Q147.60000000000002 219.6 142.5 220.39999999999998Q137.4 221.2 132.4 222.2Q127.4 223.2 123.5 224.8Q119.60000000000001 226.4 117.30000000000001 229.10000000000002Q115.0 231.8 115.0 236.6Q115.0 242.8 119.0 246.4Q123.0 250.0 129.4 250.0Z" fill="#fff"/>
<path d="M273.20000000000005 270.8Q263.2 270.8 255.8 266.9Q248.4 263.0 243.8 255.6Q239.20000000000002 248.2 237.4 237.6H233.60000000000002L233.4 268.0H209.6V216.4V125.0H238.4V159.39999999999998Q238.4 164.2 237.8 169.7Q237.20000000000002 175.2 236.10000000000002 181.0Q235.0 186.8 233.8 193.0H238.20000000000002Q240.8 183.0 245.3 175.7Q249.8 168.39999999999998 256.8 164.5Q263.8 160.6 273.4 160.6Q286.6 160.6 296.20000000000005 167.39999999999998Q305.8 174.2 311.1 186.6Q316.4 199.0 316.4 216.0Q316.4 232.6 311.2 244.89999999999998Q306.0 257.2 296.3 264.0Q286.6 270.8 273.20000000000005 270.8ZM263.0 247.2Q270.2 247.2 275.4 243.3Q280.6 239.4 283.40000000000003 232.2Q286.20000000000005 225.0 286.20000000000005 215.4Q286.20000000000005 205.8 283.5 198.8Q280.8 191.8 275.8 187.8Q270.8 183.8 263.6 183.8Q258.8 183.8 254.8 185.6Q250.8 187.39999999999998 247.8 190.5Q244.8 193.6 242.60000000000002 197.5Q240.4 201.39999999999998 239.4 205.6Q238.4 209.8 238.4 213.6V217.4Q238.4 222.0 239.8 227.3Q241.20000000000002 232.6 244.3 237.1Q247.4 241.6 252.0 244.39999999999998Q256.6 247.2 263.0 247.2Z" fill="#fff"/>
<path d="M337.2 268.0V163.0H366.0V268.0ZM351.79999999999995 147.2Q343.4 147.2 338.9 143.7Q334.4 140.2 334.4 133.4Q334.4 126.4 338.9 122.80000000000001Q343.4 119.20000000000002 351.79999999999995 119.20000000000002Q360.4 119.20000000000002 364.9 122.80000000000001Q369.4 126.4 369.4 133.4Q369.4 140.0 364.9 143.6Q360.4 147.2 351.79999999999995 147.2Z" fill="#fff"/></g></mask>
</defs>
<style>
  .l{opacity:0;transform:translateY(30px);animation:rise .55s cubic-bezier(.2,.7,.2,1) forwards;}
  .l0{animation-delay:.05s}.l1{animation-delay:.14s}.l2{animation-delay:.23s}.l3{animation-delay:.32s}
  .sheen{animation:sweep 4.5s 1.1s cubic-bezier(.4,0,.2,1) infinite;}
  @keyframes rise{to{opacity:1;transform:translateY(0)}}
  @keyframes sweep{0%{transform:translateX(-420px)}38%{transform:translateX(880px)}100%{transform:translateX(880px)}}
</style>
<rect width="1024" height="400" rx="48" fill="#FFF7EE"/>
<rect x="2" y="2" width="1020" height="396" rx="46" fill="none" stroke="#FFE0C2" stroke-width="4"/>
<g transform="translate(189.5,-133) scale(1.7)">
<g class="l l0"><path d="M52.2 270.4Q34.6 270.4 26.3 261.1Q18.0 251.8 18.0 231.4V185.6H2.8000000000000003L3.2 163.0H13.8Q20.0 163.0 23.0 161.2Q26.0 159.39999999999998 26.6 154.6L29.200000000000003 139.6H45.6V163.0H72.2V186.39999999999998H45.6V230.2Q45.6 237.4 49.0 240.60000000000002Q52.400000000000006 243.8 59.400000000000006 243.8Q63.2 243.8 66.7 243.0Q70.2 242.2 72.8 240.4V267.2Q66.60000000000001 269.2 61.400000000000006 269.79999999999995Q56.2 270.4 52.2 270.4Z" fill="url(#gw)"/></g>
<g class="l l1"><path d="M117.20000000000002 270.8Q108.4 270.8 101.60000000000001 267.3Q94.80000000000001 263.8 91.0 257.2Q87.2 250.6 87.2 240.8Q87.2 232.2 90.5 226.39999999999998Q93.80000000000001 220.6 100.20000000000002 217.0Q106.60000000000001 213.4 116.0 211.0Q125.4 208.6 137.4 206.8Q143.8 205.8 147.9 204.9Q152.0 204.0 154.0 201.9Q156.0 199.8 156.0 195.8Q156.0 190.2 152.0 186.2Q148.0 182.2 139.4 182.2Q133.60000000000002 182.2 128.70000000000002 184.2Q123.80000000000001 186.2 120.30000000000001 190.2Q116.80000000000001 194.2 115.20000000000002 200.39999999999998L89.80000000000001 192.6Q92.2 184.39999999999998 96.7 178.39999999999998Q101.2 172.39999999999998 107.6 168.29999999999998Q114.0 164.2 122.2 162.2Q130.4 160.2 140.0 160.2Q155.4 160.2 165.10000000000002 165.1Q174.8 170.0 179.60000000000002 180.3Q184.4 190.6 184.4 206.8V224.8Q184.4 231.8 184.7 239.0Q185.0 246.2 185.5 253.5Q186.0 260.8 186.60000000000002 268.0H161.20000000000002Q160.4 263.0 159.7 256.5Q159.0 250.0 158.60000000000002 243.4H155.0Q152.2 251.0 147.0 257.2Q141.8 263.4 134.3 267.1Q126.80000000000001 270.8 117.20000000000002 270.8ZM129.4 250.0Q133.20000000000002 250.0 137.10000000000002 248.6Q141.0 247.2 144.7 244.7Q148.4 242.2 151.5 238.39999999999998Q154.60000000000002 234.6 156.60000000000002 229.8L156.20000000000002 213.0L160.8 214.0Q157.20000000000002 216.6 152.40000000000003 218.1Q147.60000000000002 219.6 142.5 220.39999999999998Q137.4 221.2 132.4 222.2Q127.4 223.2 123.5 224.8Q119.60000000000001 226.4 117.30000000000001 229.10000000000002Q115.0 231.8 115.0 236.6Q115.0 242.8 119.0 246.4Q123.0 250.0 129.4 250.0Z" fill="url(#gw)"/></g>
<g class="l l2"><path d="M273.20000000000005 270.8Q263.2 270.8 255.8 266.9Q248.4 263.0 243.8 255.6Q239.20000000000002 248.2 237.4 237.6H233.60000000000002L233.4 268.0H209.6V216.4V125.0H238.4V159.39999999999998Q238.4 164.2 237.8 169.7Q237.20000000000002 175.2 236.10000000000002 181.0Q235.0 186.8 233.8 193.0H238.20000000000002Q240.8 183.0 245.3 175.7Q249.8 168.39999999999998 256.8 164.5Q263.8 160.6 273.4 160.6Q286.6 160.6 296.20000000000005 167.39999999999998Q305.8 174.2 311.1 186.6Q316.4 199.0 316.4 216.0Q316.4 232.6 311.2 244.89999999999998Q306.0 257.2 296.3 264.0Q286.6 270.8 273.20000000000005 270.8ZM263.0 247.2Q270.2 247.2 275.4 243.3Q280.6 239.4 283.40000000000003 232.2Q286.20000000000005 225.0 286.20000000000005 215.4Q286.20000000000005 205.8 283.5 198.8Q280.8 191.8 275.8 187.8Q270.8 183.8 263.6 183.8Q258.8 183.8 254.8 185.6Q250.8 187.39999999999998 247.8 190.5Q244.8 193.6 242.60000000000002 197.5Q240.4 201.39999999999998 239.4 205.6Q238.4 209.8 238.4 213.6V217.4Q238.4 222.0 239.8 227.3Q241.20000000000002 232.6 244.3 237.1Q247.4 241.6 252.0 244.39999999999998Q256.6 247.2 263.0 247.2Z" fill="url(#gw)"/></g>
<g class="l l3"><path d="M337.2 268.0V163.0H366.0V268.0ZM351.79999999999995 147.2Q343.4 147.2 338.9 143.7Q334.4 140.2 334.4 133.4Q334.4 126.4 338.9 122.80000000000001Q343.4 119.20000000000002 351.79999999999995 119.20000000000002Q360.4 119.20000000000002 364.9 122.80000000000001Q369.4 126.4 369.4 133.4Q369.4 140.0 364.9 143.6Q360.4 147.2 351.79999999999995 147.2Z" fill="url(#gw)"/></g>
</g>
<g mask="url(#wm)">
  <rect class="sheen" x="-40" y="60" width="240" height="260" fill="url(#gs)" transform="skewX(-18)"/>
</g>
</svg>
